<svg version="1.1" id="Layer_1" xmlns="http://www.w3.org/2000/svg" xmlns:xlink="http://www.w3.org/1999/xlink" x="0px" y="0px"
	 width="100%" viewBox="0 0 2000 1500" enable-background="new 0 0 2000 1500" xml:space="preserve">
<path fill="#ED1703" opacity="1.000000" stroke="none" 
	d="
M1047.000000,1501.000000 
	C698.000122,1501.000000 349.500214,1501.000000 1.000234,1501.000000 
	C1.000156,1001.000244 1.000156,501.000519 1.000078,1.000569 
	C667.666199,1.000379 1334.332397,1.000379 2000.999023,1.000190 
	C2000.999268,500.999390 2000.999268,1000.998779 2000.999634,1500.999023 
	C1683.166626,1501.000000 1365.333374,1501.000000 1047.000000,1501.000000 
M886.562317,987.004883 
	C893.204895,986.821838 900.028137,987.562988 906.460571,986.305298 
	C946.915100,978.395142 969.544006,934.200623 952.537354,896.737793 
	C946.150696,882.668884 937.117554,870.293396 927.003906,858.712463 
	C895.985229,823.193604 864.865906,787.762817 833.836426,752.253479 
	C764.098938,672.447754 694.391357,592.615967 624.677429,512.789612 
	C623.335449,511.253021 622.064819,509.654205 620.525391,507.800995 
	C679.120422,492.311310 736.706787,476.484161 796.312500,465.486420 
	C793.745361,470.497650 791.577942,474.417908 789.690735,478.468658 
	C782.891724,493.061798 774.857788,507.177582 772.367798,523.444763 
	C769.667603,541.085938 777.047607,555.071960 793.154297,562.610718 
	C807.592590,569.368591 821.455139,565.824158 833.272278,552.258118 
	C835.346313,549.877136 837.402100,547.413391 839.032410,544.724731 
	C844.807800,535.199951 850.289673,525.496948 856.080261,515.981689 
	C863.417236,503.925323 870.344543,491.554504 878.547180,480.106506 
	C888.724487,465.902527 900.471558,452.825439 910.696777,438.652832 
	C918.353394,428.040466 926.161377,417.105927 931.298523,405.192291 
	C944.010437,375.711792 928.301392,344.722931 897.390076,335.863770 
	C883.638733,331.922546 869.615356,332.315399 855.761475,334.595703 
	C836.728699,337.728455 817.731812,341.234344 798.896423,345.383453 
	C721.584106,362.413849 644.300537,379.580261 567.092896,397.078125 
	C544.970093,402.091858 524.396484,410.966797 506.986359,426.093292 
	C498.305389,433.635651 492.251129,442.783173 489.717834,454.071930 
	C485.700500,471.973785 488.750763,489.179565 495.452423,505.855713 
	C502.736664,523.981567 514.254761,539.599731 526.346191,554.639404 
	C542.726868,575.014160 560.428772,594.333252 576.649658,614.828735 
	C633.098694,686.153809 689.152039,757.792053 745.360413,829.307678 
	C749.833740,834.999329 754.341736,840.663696 758.494934,845.912720 
	C696.051514,846.785095 633.754944,847.655457 572.573303,848.510254 
	C574.404785,840.839478 577.433167,832.263428 578.371033,823.464539 
	C581.296326,796.019531 565.655884,765.215759 529.569885,764.374207 
	C507.982086,763.870789 489.514008,770.323181 476.699280,788.806396 
	C473.004791,794.135193 468.837494,799.315063 466.176636,805.151245 
	C453.421448,833.127808 440.880371,861.207947 428.739319,889.455872 
	C423.038422,902.719849 420.330688,916.804932 421.029785,931.363342 
	C421.886047,949.195312 429.653229,962.204773 447.178558,968.208557 
	C451.260681,969.606995 455.370605,971.013550 459.569885,971.965698 
	C481.016632,976.828430 502.648193,975.040833 524.260925,973.501160 
	C554.171021,971.370422 584.054260,968.723022 613.994812,967.193054 
	C657.778442,964.955750 701.604980,964.586548 745.411499,967.024597 
	C776.530884,968.756592 807.505432,971.835571 838.156738,977.645691 
	C854.006165,980.650085 869.819458,983.845093 886.562317,987.004883 
M1316.000610,668.428772 
	C1306.719849,627.892517 1297.029297,587.444092 1288.311401,546.787109 
	C1283.045898,522.231079 1279.172241,497.371643 1274.914307,472.607086 
	C1273.232178,462.822662 1268.150024,456.203888 1258.389160,454.359589 
	C1252.587769,453.263397 1246.421387,453.006989 1240.552490,453.630127 
	C1232.816772,454.451538 1225.239502,456.665161 1217.545288,457.998444 
	C1202.324097,460.635925 1187.838623,465.279755 1174.538086,473.257172 
	C1166.718872,477.947021 1161.437012,484.466553 1158.111450,493.210815 
	C1132.815552,559.720581 1107.206787,626.111206 1081.766968,692.566406 
	C1080.461670,695.976318 1078.649902,697.641357 1074.831909,698.453735 
	C1061.191040,701.356018 1048.297363,706.565186 1037.273804,715.140137 
	C1030.950195,720.059021 1024.893066,725.913513 1020.451233,732.514404 
	C1014.291992,741.667542 1016.192078,750.947815 1023.925842,758.798096 
	C1029.773926,764.734314 1035.569214,770.733643 1041.653687,776.420593 
	C1044.453247,779.037170 1045.108398,781.068970 1043.492065,784.897583 
	C1022.733215,834.071472 1002.191345,883.337158 981.648132,932.601990 
	C975.440491,947.488708 969.202698,962.368042 963.338379,977.391174 
	C958.349121,990.172974 963.907410,999.113953 977.489563,1000.957703 
	C978.314392,1001.069702 979.148132,1001.122986 979.979370,1001.179138 
	C1004.632202,1002.844543 1026.908569,995.155579 1048.151978,983.652588 
	C1057.302612,978.697632 1064.202637,971.624756 1068.823242,962.024658 
	C1086.063232,926.206299 1103.620850,890.540833 1121.065796,854.821167 
	C1121.913818,853.084961 1122.824097,851.379272 1123.885620,849.307739 
	C1125.536743,850.564331 1126.859985,851.512268 1128.118774,852.539062 
	C1136.639282,859.488464 1145.062500,866.559998 1153.671387,873.397766 
	C1197.921631,908.544373 1241.936279,943.947144 1280.588379,985.440125 
	C1285.980835,991.228943 1292.913574,994.709595 1300.642700,995.863647 
	C1330.303223,1000.292297 1355.533203,990.918945 1376.507935,970.040649 
	C1385.023193,961.564514 1388.084961,950.689575 1385.987061,938.746887 
	C1385.040405,933.357117 1383.387207,928.089050 1382.007690,922.778015 
	C1360.056030,838.265015 1338.096802,753.753967 1316.000610,668.428772 
M1442.380981,836.831299 
	C1439.358154,891.393982 1436.293579,945.954468 1433.342407,1000.521057 
	C1432.623291,1013.817139 1439.339355,1022.932556 1452.576538,1024.901123 
	C1482.455322,1029.344360 1508.447998,1020.171265 1530.794434,1000.361206 
	C1536.268066,995.508850 1539.537598,988.938965 1539.954590,981.455688 
	C1542.039673,944.027344 1544.012573,906.592651 1546.006836,869.159302 
	C1548.134277,829.230286 1550.228882,789.299438 1552.360229,749.370667 
	C1554.900024,701.789246 1557.466797,654.209290 1560.016235,606.628357 
	C1561.834717,572.689209 1563.506226,538.741333 1565.519897,504.813782 
	C1566.425171,489.559937 1561.286133,481.278046 1546.232544,479.092926 
	C1515.928101,474.694061 1489.782349,484.441162 1467.629517,505.091919 
	C1462.385742,509.980194 1460.129517,516.622192 1459.766724,523.992249 
	C1458.537964,548.952332 1457.048950,573.899475 1455.662598,598.851807 
	C1453.093140,645.096069 1450.530762,691.340759 1447.956787,737.584778 
	C1446.132812,770.355103 1444.294434,803.124573 1442.380981,836.831299 
M1540.444336,414.984589 
	C1541.690430,414.153839 1542.937134,413.324127 1544.182373,412.492188 
	C1555.271484,405.083588 1562.111816,395.211670 1563.838623,381.602203 
	C1566.456177,360.974121 1569.837036,340.443970 1572.749756,319.851837 
	C1574.400146,308.185120 1569.314087,300.697052 1557.289307,299.084473 
	C1526.536011,294.960175 1499.911621,304.789246 1476.814697,324.832764 
	C1472.085449,328.936829 1469.581787,334.605133 1468.638306,340.984467 
	C1466.959351,352.337402 1464.945923,363.640747 1463.089966,374.967712 
	C1461.476196,384.817596 1459.905884,394.674652 1458.281982,404.522888 
	C1456.151855,417.441803 1460.956299,425.413452 1473.598145,429.032806 
	C1477.704224,430.208344 1482.095337,430.858307 1486.365967,430.908234 
	C1505.715454,431.134552 1523.293335,424.994629 1540.444336,414.984589 
z"/>
<path fill="#F7E1E0" opacity="1.000000" stroke="none" 
	d="
M886.105713,986.979370 
	C869.819458,983.845093 854.006165,980.650085 838.156738,977.645691 
	C807.505432,971.835571 776.530884,968.756592 745.411499,967.024597 
	C701.604980,964.586548 657.778442,964.955750 613.994812,967.193054 
	C584.054260,968.723022 554.171021,971.370422 524.260925,973.501160 
	C502.648193,975.040833 481.016632,976.828430 459.569885,971.965698 
	C455.370605,971.013550 451.260681,969.606995 447.178558,968.208557 
	C429.653229,962.204773 421.886047,949.195312 421.029785,931.363342 
	C420.330688,916.804932 423.038422,902.719849 428.739319,889.455872 
	C440.880371,861.207947 453.421448,833.127808 466.176636,805.151245 
	C468.837494,799.315063 473.004791,794.135193 476.699280,788.806396 
	C489.514008,770.323181 507.982086,763.870789 529.569885,764.374207 
	C565.655884,765.215759 581.296326,796.019531 578.371033,823.464539 
	C577.433167,832.263428 574.404785,840.839478 572.573303,848.510254 
	C633.754944,847.655457 696.051514,846.785095 758.494934,845.912720 
	C754.341736,840.663696 749.833740,834.999329 745.360413,829.307678 
	C689.152039,757.792053 633.098694,686.153809 576.649658,614.828735 
	C560.428772,594.333252 542.726868,575.014160 526.346191,554.639404 
	C514.254761,539.599731 502.736664,523.981567 495.452423,505.855713 
	C488.750763,489.179565 485.700500,471.973785 489.717834,454.071930 
	C492.251129,442.783173 498.305389,433.635651 506.986359,426.093292 
	C524.396484,410.966797 544.970093,402.091858 567.092896,397.078125 
	C644.300537,379.580261 721.584106,362.413849 798.896423,345.383453 
	C817.731812,341.234344 836.728699,337.728455 855.761475,334.595703 
	C869.615356,332.315399 883.638733,331.922546 897.390076,335.863770 
	C928.301392,344.722931 944.010437,375.711792 931.298523,405.192291 
	C926.161377,417.105927 918.353394,428.040466 910.696777,438.652832 
	C900.471558,452.825439 888.724487,465.902527 878.547180,480.106506 
	C870.344543,491.554504 863.417236,503.925323 856.080261,515.981689 
	C850.289673,525.496948 844.807800,535.199951 839.032410,544.724731 
	C837.402100,547.413391 835.346313,549.877136 833.272278,552.258118 
	C821.455139,565.824158 807.592590,569.368591 793.154297,562.610718 
	C777.047607,555.071960 769.667603,541.085938 772.367798,523.444763 
	C774.857788,507.177582 782.891724,493.061798 789.690735,478.468658 
	C791.577942,474.417908 793.745361,470.497650 796.312500,465.486420 
	C736.706787,476.484161 679.120422,492.311310 620.525391,507.800995 
	C622.064819,509.654205 623.335449,511.253021 624.677429,512.789612 
	C694.391357,592.615967 764.098938,672.447754 833.836426,752.253479 
	C864.865906,787.762817 895.985229,823.193604 927.003906,858.712463 
	C937.117554,870.293396 946.150696,882.668884 952.537354,896.737793 
	C969.544006,934.200623 946.915100,978.395142 906.460571,986.305298 
	C900.028137,987.562988 893.204895,986.821838 886.105713,986.979370 
z"/>
<path fill="#F7E1E1" opacity="1.000000" stroke="none" 
	d="
M1316.069946,668.835632 
	C1338.096802,753.753967 1360.056030,838.265015 1382.007690,922.778015 
	C1383.387207,928.089050 1385.040405,933.357117 1385.987061,938.746887 
	C1388.084961,950.689575 1385.023193,961.564514 1376.507935,970.040649 
	C1355.533203,990.918945 1330.303223,1000.292297 1300.642700,995.863647 
	C1292.913574,994.709595 1285.980835,991.228943 1280.588379,985.440125 
	C1241.936279,943.947144 1197.921631,908.544373 1153.671387,873.397766 
	C1145.062500,866.559998 1136.639282,859.488464 1128.118774,852.539062 
	C1126.859985,851.512268 1125.536743,850.564331 1123.885620,849.307739 
	C1122.824097,851.379272 1121.913818,853.084961 1121.065796,854.821167 
	C1103.620850,890.540833 1086.063232,926.206299 1068.823242,962.024658 
	C1064.202637,971.624756 1057.302612,978.697632 1048.151978,983.652588 
	C1026.908569,995.155579 1004.632202,1002.844543 979.979370,1001.179138 
	C979.148132,1001.122986 978.314392,1001.069702 977.489563,1000.957703 
	C963.907410,999.113953 958.349121,990.172974 963.338379,977.391174 
	C969.202698,962.368042 975.440491,947.488708 981.648132,932.601990 
	C1002.191345,883.337158 1022.733215,834.071472 1043.492065,784.897583 
	C1045.108398,781.068970 1044.453247,779.037170 1041.653687,776.420593 
	C1035.569214,770.733643 1029.773926,764.734314 1023.925842,758.798096 
	C1016.192078,750.947815 1014.291992,741.667542 1020.451233,732.514404 
	C1024.893066,725.913513 1030.950195,720.059021 1037.273804,715.140137 
	C1048.297363,706.565186 1061.191040,701.356018 1074.831909,698.453735 
	C1078.649902,697.641357 1080.461670,695.976318 1081.766968,692.566406 
	C1107.206787,626.111206 1132.815552,559.720581 1158.111450,493.210815 
	C1161.437012,484.466553 1166.718872,477.947021 1174.538086,473.257172 
	C1187.838623,465.279755 1202.324097,460.635925 1217.545288,457.998444 
	C1225.239502,456.665161 1232.816772,454.451538 1240.552490,453.630127 
	C1246.421387,453.006989 1252.587769,453.263397 1258.389160,454.359589 
	C1268.150024,456.203888 1273.232178,462.822662 1274.914307,472.607086 
	C1279.172241,497.371643 1283.045898,522.231079 1288.311401,546.787109 
	C1297.029297,587.444092 1306.719849,627.892517 1316.069946,668.835632 
M1169.070312,748.427368 
	C1188.490479,764.785339 1207.910767,781.143372 1227.330933,797.501343 
	C1227.613403,797.313965 1227.895874,797.126587 1228.178223,796.939209 
	C1218.156738,754.541992 1208.135132,712.144775 1197.977661,669.172852 
	C1197.367188,670.116089 1197.069580,670.444275 1196.917480,670.829834 
	C1187.290039,695.238220 1177.652588,719.642761 1168.131714,744.092712 
	C1167.712280,745.169678 1168.368652,746.665649 1169.070312,748.427368 
z"/>
<path fill="#F7E0E0" opacity="1.000000" stroke="none" 
	d="
M1442.421875,836.362915 
	C1444.294434,803.124573 1446.132812,770.355103 1447.956787,737.584778 
	C1450.530762,691.340759 1453.093140,645.096069 1455.662598,598.851807 
	C1457.048950,573.899475 1458.537964,548.952332 1459.766724,523.992249 
	C1460.129517,516.622192 1462.385742,509.980194 1467.629517,505.091919 
	C1489.782349,484.441162 1515.928101,474.694061 1546.232544,479.092926 
	C1561.286133,481.278046 1566.425171,489.559937 1565.519897,504.813782 
	C1563.506226,538.741333 1561.834717,572.689209 1560.016235,606.628357 
	C1557.466797,654.209290 1554.900024,701.789246 1552.360229,749.370667 
	C1550.228882,789.299438 1548.134277,829.230286 1546.006836,869.159302 
	C1544.012573,906.592651 1542.039673,944.027344 1539.954590,981.455688 
	C1539.537598,988.938965 1536.268066,995.508850 1530.794434,1000.361206 
	C1508.447998,1020.171265 1482.455322,1029.344360 1452.576538,1024.901123 
	C1439.339355,1022.932556 1432.623291,1013.817139 1433.342407,1000.521057 
	C1436.293579,945.954468 1439.358154,891.393982 1442.421875,836.362915 
z"/>
<path fill="#F7E0E0" opacity="1.000000" stroke="none" 
	d="
M1540.128784,415.168060 
	C1523.293335,424.994629 1505.715454,431.134552 1486.365967,430.908234 
	C1482.095337,430.858307 1477.704224,430.208344 1473.598145,429.032806 
	C1460.956299,425.413452 1456.151855,417.441803 1458.281982,404.522888 
	C1459.905884,394.674652 1461.476196,384.817596 1463.089966,374.967712 
	C1464.945923,363.640747 1466.959351,352.337402 1468.638306,340.984467 
	C1469.581787,334.605133 1472.085449,328.936829 1476.814697,324.832764 
	C1499.911621,304.789246 1526.536011,294.960175 1557.289307,299.084473 
	C1569.314087,300.697052 1574.400146,308.185120 1572.749756,319.851837 
	C1569.837036,340.443970 1566.456177,360.974121 1563.838623,381.602203 
	C1562.111816,395.211670 1555.271484,405.083588 1544.182373,412.492188 
	C1542.937134,413.324127 1541.690430,414.153839 1540.128784,415.168060 
z"/>
<path fill="#ED1905" opacity="1.000000" stroke="none" 
	d="
M1168.797119,748.196899 
	C1168.368652,746.665649 1167.712280,745.169678 1168.131714,744.092712 
	C1177.652588,719.642761 1187.290039,695.238220 1196.917480,670.829834 
	C1197.069580,670.444275 1197.367188,670.116089 1197.977661,669.172852 
	C1208.135132,712.144775 1218.156738,754.541992 1228.178223,796.939209 
	C1227.895874,797.126587 1227.613403,797.313965 1227.330933,797.501343 
	C1207.910767,781.143372 1188.490479,764.785339 1168.797119,748.196899 
z"/>
</svg>